<?xml version="1.0" encoding="UTF-8"?>
<svg xmlns="http://www.w3.org/2000/svg" xmlns:xlink="http://www.w3.org/1999/xlink" viewBox="0 0 500 500" width="500px" height="500px">
<g id="surface86791213">
<path style=" stroke:none;fill-rule:nonzero;fill:rgb(100%,87.058824%,3.921569%);fill-opacity:1;" d="M 452.738281 23.25 C 450.839844 21.179688 448.171875 20 445.359375 20 L 54.640625 20 C 51.828125 20 49.160156 21.179688 47.261719 23.25 C 45.359375 25.320312 44.429688 28.101562 44.679688 30.890625 L 79.878906 425.160156 C 80.25 429.28125 83.121094 432.75 87.101562 433.890625 L 247.199219 479.621094 C 248.089844 479.871094 249.019531 480 249.941406 480 C 250.859375 480 251.789062 479.871094 252.679688 479.621094 L 412.921875 433.890625 C 416.898438 432.75 419.769531 429.28125 420.140625 425.160156 L 455.320312 30.890625 C 455.570312 28.101562 454.628906 25.320312 452.738281 23.25 Z M 120 290.039062 L 190 309.460938 L 190 110 L 230 110 L 230 370 L 120 339.488281 Z M 380.539062 220 L 370 342.5 L 270 370 L 270 323.988281 L 337.5 305.441406 L 340 267.941406 L 270 280 L 270 110 L 390 110 L 386.550781 150 L 310 150 L 310 230 Z M 380.539062 220 "/>
</g>
</svg>
